<mxfile host="Electron" agent="Mozilla/5.0 (X11; Linux x86_64) AppleWebKit/537.36 (KHTML, like Gecko) draw.io/28.0.6 Chrome/138.0.7204.100 Electron/37.2.3 Safari/537.36" version="28.0.6">
  <diagram id="PFNuNgk9BitoZbuEjrIU" name="Page-1">
    <mxGraphModel dx="1572" dy="1638" grid="1" gridSize="10" guides="1" tooltips="1" connect="1" arrows="1" fold="1" page="1" pageScale="1" pageWidth="850" pageHeight="1100" math="0" shadow="0">
      <root>
        <mxCell id="0" />
        <mxCell id="1" parent="0" />
        <mxCell id="6" value="" style="fontStyle=1;align=center;verticalAlign=middle;childLayout=stackLayout;horizontal=1;horizontalStack=0;resizeParent=1;resizeParentMax=0;resizeLast=0;marginBottom=0;" parent="1" vertex="1">
          <mxGeometry x="130" y="300" width="220" height="336" as="geometry" />
        </mxCell>
        <mxCell id="8" value="{encapsulated}" style="html=1;align=center;spacing=0;verticalAlign=middle;strokeColor=none;fillColor=none;whiteSpace=wrap;" parent="6" vertex="1">
          <mxGeometry width="220" height="14" as="geometry" />
        </mxCell>
        <mxCell id="9" value="Block1" style="html=1;align=center;spacing=0;verticalAlign=middle;strokeColor=none;fillColor=none;whiteSpace=wrap;fontStyle=1;" parent="6" vertex="1">
          <mxGeometry y="14" width="220" height="14" as="geometry" />
        </mxCell>
        <mxCell id="10" value="" style="line;strokeWidth=0.25;fillColor=none;align=left;verticalAlign=middle;spacingTop=-1;spacingLeft=3;spacingRight=3;rotatable=0;labelPosition=right;points=[];portConstraint=eastwest;" parent="6" vertex="1">
          <mxGeometry y="28" width="220" height="8" as="geometry" />
        </mxCell>
        <mxCell id="11" value="constraints" style="html=1;align=center;spacing=0;verticalAlign=middle;strokeColor=none;fillColor=none;whiteSpace=wrap;fontStyle=2;fontSize=10;" parent="6" vertex="1">
          <mxGeometry y="36" width="220" height="16" as="geometry" />
        </mxCell>
        <mxCell id="12" value="{x &gt; y}" style="html=1;align=left;spacing=0;spacingLeft=8;verticalAlign=middle;strokeColor=none;fillColor=none;whiteSpace=wrap;" parent="6" vertex="1">
          <mxGeometry y="52" width="220" height="16" as="geometry" />
        </mxCell>
        <mxCell id="13" value="" style="line;strokeWidth=0.25;fillColor=none;align=left;verticalAlign=middle;spacingTop=-1;spacingLeft=3;spacingRight=3;rotatable=0;labelPosition=right;points=[];portConstraint=eastwest;" parent="6" vertex="1">
          <mxGeometry y="68" width="220" height="8" as="geometry" />
        </mxCell>
        <mxCell id="14" value="operations" style="html=1;align=center;spacing=0;verticalAlign=middle;strokeColor=none;fillColor=none;whiteSpace=wrap;fontStyle=2;fontSize=10;" parent="6" vertex="1">
          <mxGeometry y="76" width="220" height="16" as="geometry" />
        </mxCell>
        <mxCell id="15" value="operation1 (p1 : Type1) : Type2" style="html=1;align=left;spacing=0;spacingLeft=8;verticalAlign=middle;strokeColor=none;fillColor=none;whiteSpace=wrap;" parent="6" vertex="1">
          <mxGeometry y="92" width="220" height="16" as="geometry" />
        </mxCell>
        <mxCell id="16" value="" style="line;strokeWidth=0.25;fillColor=none;align=left;verticalAlign=middle;spacingTop=-1;spacingLeft=3;spacingRight=3;rotatable=0;labelPosition=right;points=[];portConstraint=eastwest;" parent="6" vertex="1">
          <mxGeometry y="108" width="220" height="8" as="geometry" />
        </mxCell>
        <mxCell id="17" value="parts" style="html=1;align=center;spacing=0;verticalAlign=middle;strokeColor=none;fillColor=none;whiteSpace=wrap;fontStyle=2;fontSize=10;" parent="6" vertex="1">
          <mxGeometry y="116" width="220" height="16" as="geometry" />
        </mxCell>
        <mxCell id="18" value="property1 : Block2" style="html=1;align=left;spacing=0;spacingLeft=8;verticalAlign=middle;strokeColor=none;fillColor=none;whiteSpace=wrap;" parent="6" vertex="1">
          <mxGeometry y="132" width="220" height="16" as="geometry" />
        </mxCell>
        <mxCell id="19" value="" style="line;strokeWidth=0.25;fillColor=none;align=left;verticalAlign=middle;spacingTop=-1;spacingLeft=3;spacingRight=3;rotatable=0;labelPosition=right;points=[];portConstraint=eastwest;" parent="6" vertex="1">
          <mxGeometry y="148" width="220" height="8" as="geometry" />
        </mxCell>
        <mxCell id="20" value="references" style="html=1;align=center;spacing=0;verticalAlign=middle;strokeColor=none;fillColor=none;whiteSpace=wrap;fontStyle=2;fontSize=10;" parent="6" vertex="1">
          <mxGeometry y="156" width="220" height="16" as="geometry" />
        </mxCell>
        <mxCell id="21" value="property2 : Block3 [0..*] {ordered}" style="html=1;align=left;spacing=0;spacingLeft=8;verticalAlign=middle;strokeColor=none;fillColor=none;whiteSpace=wrap;" parent="6" vertex="1">
          <mxGeometry y="172" width="220" height="16" as="geometry" />
        </mxCell>
        <mxCell id="22" value="" style="line;strokeWidth=0.25;fillColor=none;align=left;verticalAlign=middle;spacingTop=-1;spacingLeft=3;spacingRight=3;rotatable=0;labelPosition=right;points=[];portConstraint=eastwest;" parent="6" vertex="1">
          <mxGeometry y="188" width="220" height="8" as="geometry" />
        </mxCell>
        <mxCell id="23" value="values" style="html=1;align=center;spacing=0;verticalAlign=middle;strokeColor=none;fillColor=none;whiteSpace=wrap;fontStyle=2;fontSize=10;" parent="6" vertex="1">
          <mxGeometry y="196" width="220" height="16" as="geometry" />
        </mxCell>
        <mxCell id="24" value="property3 : Integer = 99 {readOnly}" style="html=1;align=left;spacing=0;spacingLeft=8;verticalAlign=middle;strokeColor=none;fillColor=none;whiteSpace=wrap;" parent="6" vertex="1">
          <mxGeometry y="212" width="220" height="16" as="geometry" />
        </mxCell>
        <mxCell id="25" value="property4 : Real = 10.0" style="html=1;align=left;spacing=0;spacingLeft=8;verticalAlign=middle;strokeColor=none;fillColor=none;whiteSpace=wrap;" parent="6" vertex="1">
          <mxGeometry y="228" width="220" height="16" as="geometry" />
        </mxCell>
        <mxCell id="26" value="" style="line;strokeWidth=0.25;fillColor=none;align=left;verticalAlign=middle;spacingTop=-1;spacingLeft=3;spacingRight=3;rotatable=0;labelPosition=right;points=[];portConstraint=eastwest;" parent="6" vertex="1">
          <mxGeometry y="244" width="220" height="8" as="geometry" />
        </mxCell>
        <mxCell id="27" value="properties" style="html=1;align=center;spacing=0;verticalAlign=middle;strokeColor=none;fillColor=none;whiteSpace=wrap;fontStyle=2;fontSize=10;" parent="6" vertex="1">
          <mxGeometry y="252" width="220" height="16" as="geometry" />
        </mxCell>
        <mxCell id="28" value="property5 : Type1" style="html=1;align=left;spacing=0;spacingLeft=8;verticalAlign=middle;strokeColor=none;fillColor=none;whiteSpace=wrap;" parent="6" vertex="1">
          <mxGeometry y="268" width="220" height="16" as="geometry" />
        </mxCell>
        <mxCell id="29" value="" style="html=1;align=left;spacing=0;spacingLeft=8;verticalAlign=middle;strokeColor=none;fillColor=none;whiteSpace=wrap;" parent="6" vertex="1">
          <mxGeometry y="284" width="220" height="36" as="geometry" />
        </mxCell>
        <mxCell id="30" value="operations" style="html=1;align=center;spacing=0;verticalAlign=middle;strokeColor=none;fillColor=none;whiteSpace=wrap;fontStyle=2;fontSize=10;" parent="6" vertex="1">
          <mxGeometry y="320" width="220" height="16" as="geometry" />
        </mxCell>
        <mxCell id="31" value="" style="fontStyle=1;align=center;verticalAlign=middle;childLayout=stackLayout;horizontal=1;horizontalStack=0;resizeParent=1;resizeParentMax=0;resizeLast=0;marginBottom=0;" parent="1" vertex="1">
          <mxGeometry x="680" y="180" width="220" height="336" as="geometry" />
        </mxCell>
        <mxCell id="32" value="{encapsulated}" style="html=1;align=center;spacing=0;verticalAlign=middle;strokeColor=none;fillColor=none;whiteSpace=wrap;" parent="31" vertex="1">
          <mxGeometry width="220" height="14" as="geometry" />
        </mxCell>
        <mxCell id="33" value="Block1" style="html=1;align=center;spacing=0;verticalAlign=middle;strokeColor=none;fillColor=none;whiteSpace=wrap;fontStyle=1;" parent="31" vertex="1">
          <mxGeometry y="14" width="220" height="14" as="geometry" />
        </mxCell>
        <mxCell id="34" value="" style="line;strokeWidth=0.25;fillColor=none;align=left;verticalAlign=middle;spacingTop=-1;spacingLeft=3;spacingRight=3;rotatable=0;labelPosition=right;points=[];portConstraint=eastwest;" parent="31" vertex="1">
          <mxGeometry y="28" width="220" height="8" as="geometry" />
        </mxCell>
        <mxCell id="35" value="constraints" style="html=1;align=center;spacing=0;verticalAlign=middle;strokeColor=none;fillColor=none;whiteSpace=wrap;fontStyle=2;fontSize=10;" parent="31" vertex="1">
          <mxGeometry y="36" width="220" height="16" as="geometry" />
        </mxCell>
        <mxCell id="36" value="{x &gt; y}" style="html=1;align=left;spacing=0;spacingLeft=8;verticalAlign=middle;strokeColor=none;fillColor=none;whiteSpace=wrap;" parent="31" vertex="1">
          <mxGeometry y="52" width="220" height="16" as="geometry" />
        </mxCell>
        <mxCell id="37" value="" style="line;strokeWidth=0.25;fillColor=none;align=left;verticalAlign=middle;spacingTop=-1;spacingLeft=3;spacingRight=3;rotatable=0;labelPosition=right;points=[];portConstraint=eastwest;" parent="31" vertex="1">
          <mxGeometry y="68" width="220" height="8" as="geometry" />
        </mxCell>
        <mxCell id="38" value="operations" style="html=1;align=center;spacing=0;verticalAlign=middle;strokeColor=none;fillColor=none;whiteSpace=wrap;fontStyle=2;fontSize=10;" parent="31" vertex="1">
          <mxGeometry y="76" width="220" height="16" as="geometry" />
        </mxCell>
        <mxCell id="39" value="operation1 (p1 : Type1) : Type2" style="html=1;align=left;spacing=0;spacingLeft=8;verticalAlign=middle;strokeColor=none;fillColor=none;whiteSpace=wrap;" parent="31" vertex="1">
          <mxGeometry y="92" width="220" height="16" as="geometry" />
        </mxCell>
        <mxCell id="40" value="" style="line;strokeWidth=0.25;fillColor=none;align=left;verticalAlign=middle;spacingTop=-1;spacingLeft=3;spacingRight=3;rotatable=0;labelPosition=right;points=[];portConstraint=eastwest;" parent="31" vertex="1">
          <mxGeometry y="108" width="220" height="8" as="geometry" />
        </mxCell>
        <mxCell id="41" value="parts" style="html=1;align=center;spacing=0;verticalAlign=middle;strokeColor=none;fillColor=none;whiteSpace=wrap;fontStyle=2;fontSize=10;" parent="31" vertex="1">
          <mxGeometry y="116" width="220" height="16" as="geometry" />
        </mxCell>
        <mxCell id="42" value="property1 : Block2" style="html=1;align=left;spacing=0;spacingLeft=8;verticalAlign=middle;strokeColor=none;fillColor=none;whiteSpace=wrap;" parent="31" vertex="1">
          <mxGeometry y="132" width="220" height="16" as="geometry" />
        </mxCell>
        <mxCell id="43" value="" style="line;strokeWidth=0.25;fillColor=none;align=left;verticalAlign=middle;spacingTop=-1;spacingLeft=3;spacingRight=3;rotatable=0;labelPosition=right;points=[];portConstraint=eastwest;" parent="31" vertex="1">
          <mxGeometry y="148" width="220" height="8" as="geometry" />
        </mxCell>
        <mxCell id="44" value="references" style="html=1;align=center;spacing=0;verticalAlign=middle;strokeColor=none;fillColor=none;whiteSpace=wrap;fontStyle=2;fontSize=10;" parent="31" vertex="1">
          <mxGeometry y="156" width="220" height="16" as="geometry" />
        </mxCell>
        <mxCell id="45" value="property2 : Block3 [0..*] {ordered}" style="html=1;align=left;spacing=0;spacingLeft=8;verticalAlign=middle;strokeColor=none;fillColor=none;whiteSpace=wrap;" parent="31" vertex="1">
          <mxGeometry y="172" width="220" height="16" as="geometry" />
        </mxCell>
        <mxCell id="46" value="" style="line;strokeWidth=0.25;fillColor=none;align=left;verticalAlign=middle;spacingTop=-1;spacingLeft=3;spacingRight=3;rotatable=0;labelPosition=right;points=[];portConstraint=eastwest;" parent="31" vertex="1">
          <mxGeometry y="188" width="220" height="8" as="geometry" />
        </mxCell>
        <mxCell id="47" value="values" style="html=1;align=center;spacing=0;verticalAlign=middle;strokeColor=none;fillColor=none;whiteSpace=wrap;fontStyle=2;fontSize=10;" parent="31" vertex="1">
          <mxGeometry y="196" width="220" height="16" as="geometry" />
        </mxCell>
        <mxCell id="48" value="property3 : Integer = 99 {readOnly}" style="html=1;align=left;spacing=0;spacingLeft=8;verticalAlign=middle;strokeColor=none;fillColor=none;whiteSpace=wrap;" parent="31" vertex="1">
          <mxGeometry y="212" width="220" height="16" as="geometry" />
        </mxCell>
        <mxCell id="49" value="property4 : Real = 10.0" style="html=1;align=left;spacing=0;spacingLeft=8;verticalAlign=middle;strokeColor=none;fillColor=none;whiteSpace=wrap;" parent="31" vertex="1">
          <mxGeometry y="228" width="220" height="16" as="geometry" />
        </mxCell>
        <mxCell id="50" value="" style="line;strokeWidth=0.25;fillColor=none;align=left;verticalAlign=middle;spacingTop=-1;spacingLeft=3;spacingRight=3;rotatable=0;labelPosition=right;points=[];portConstraint=eastwest;" parent="31" vertex="1">
          <mxGeometry y="244" width="220" height="8" as="geometry" />
        </mxCell>
        <mxCell id="51" value="properties" style="html=1;align=center;spacing=0;verticalAlign=middle;strokeColor=none;fillColor=none;whiteSpace=wrap;fontStyle=2;fontSize=10;" parent="31" vertex="1">
          <mxGeometry y="252" width="220" height="16" as="geometry" />
        </mxCell>
        <mxCell id="52" value="property5 : Type1" style="html=1;align=left;spacing=0;spacingLeft=8;verticalAlign=middle;strokeColor=none;fillColor=none;whiteSpace=wrap;" parent="31" vertex="1">
          <mxGeometry y="268" width="220" height="16" as="geometry" />
        </mxCell>
        <mxCell id="53" value="" style="html=1;align=left;spacing=0;spacingLeft=8;verticalAlign=middle;strokeColor=none;fillColor=none;whiteSpace=wrap;" parent="31" vertex="1">
          <mxGeometry y="284" width="220" height="36" as="geometry" />
        </mxCell>
        <mxCell id="54" value="operations" style="html=1;align=center;spacing=0;verticalAlign=middle;strokeColor=none;fillColor=none;whiteSpace=wrap;fontStyle=2;fontSize=10;" parent="31" vertex="1">
          <mxGeometry y="320" width="220" height="16" as="geometry" />
        </mxCell>
        <mxCell id="57" value="association1" style="verticalAlign=bottom;html=1;endArrow=none;edgeStyle=orthogonalEdgeStyle;startFill=1;startSize=12;startArrow=diamondThin;exitX=1;exitY=0.25;exitDx=0;exitDy=0;entryX=0;entryY=0.75;entryDx=0;entryDy=0;" parent="1" source="11" target="39" edge="1">
          <mxGeometry relative="1" as="geometry">
            <mxPoint x="370" y="290" as="sourcePoint" />
            <mxPoint x="620" y="290" as="targetPoint" />
          </mxGeometry>
        </mxCell>
        <mxCell id="58" value="1" style="resizable=0;html=1;align=left;verticalAlign=top;labelBackgroundColor=none;fontSize=10" parent="57" connectable="0" vertex="1">
          <mxGeometry x="-0.9" relative="1" as="geometry" />
        </mxCell>
        <mxCell id="59" value="property2" style="resizable=0;html=1;align=left;verticalAlign=bottom;labelBackgroundColor=none;fontSize=10" parent="57" connectable="0" vertex="1">
          <mxGeometry x="-0.9" relative="1" as="geometry" />
        </mxCell>
        <mxCell id="60" value="{ordered} 0..*" style="resizable=0;html=1;align=right;verticalAlign=top;labelBackgroundColor=none;fontSize=10" parent="57" connectable="0" vertex="1">
          <mxGeometry x="0.9" relative="1" as="geometry" />
        </mxCell>
        <mxCell id="61" value="property1" style="resizable=0;html=1;align=right;verticalAlign=bottom;labelBackgroundColor=none;fontSize=10" parent="57" connectable="0" vertex="1">
          <mxGeometry x="0.9" relative="1" as="geometry" />
        </mxCell>
        <!-- 6-Tensor Feedback Pipeline using SysML blocks -->
        <mxCell id="1000" value="Burn 6-Tensor Feedback Pipeline" style="swimlane;html=1;rounded=1;whiteSpace=wrap;labelBackgroundColor=none;fillColor=#e0f7fa;strokeColor=#00838f;fontSize=14;fontStyle=1;" vertex="1" parent="1">
          <mxGeometry x="50" y="700" width="700" height="300" as="geometry" />
        </mxCell>
        <!-- Tensor 1 - Full SysML Block -->
        <mxCell id="1001" value="" style="fontStyle=1;align=center;verticalAlign=middle;childLayout=stackLayout;horizontal=1;horizontalStack=0;resizeParent=1;resizeParentMax=0;resizeLast=0;marginBottom=0;fillColor=#fffde7;strokeColor=#fbc02d;" vertex="1" parent="1000">
          <mxGeometry x="30" y="40" width="120" height="100" as="geometry" />
        </mxCell>
        <mxCell id="1001a" value="{tensor}" style="html=1;align=center;spacing=0;verticalAlign=middle;strokeColor=none;fillColor=none;whiteSpace=wrap;" vertex="1" parent="1001">
          <mxGeometry width="120" height="14" as="geometry" />
        </mxCell>
        <mxCell id="1001b" value="Tensor1" style="html=1;align=center;spacing=0;verticalAlign=middle;strokeColor=none;fillColor=none;whiteSpace=wrap;fontStyle=1;" vertex="1" parent="1001">
          <mxGeometry y="14" width="120" height="14" as="geometry" />
        </mxCell>
        <mxCell id="1001c" value="" style="line;strokeWidth=0.25;fillColor=none;align=left;verticalAlign=middle;spacingTop=-1;spacingLeft=3;spacingRight=3;rotatable=0;labelPosition=right;points=[];portConstraint=eastwest;" vertex="1" parent="1001">
          <mxGeometry y="28" width="120" height="8" as="geometry" />
        </mxCell>
        <mxCell id="1001d" value="operations" style="html=1;align=center;spacing=0;verticalAlign=middle;strokeColor=none;fillColor=none;whiteSpace=wrap;fontStyle=2;fontSize=10;" vertex="1" parent="1001">
          <mxGeometry y="36" width="120" height="16" as="geometry" />
        </mxCell>
        <mxCell id="1001e" value="sin() : Tensor" style="html=1;align=left;spacing=0;spacingLeft=8;verticalAlign=middle;strokeColor=none;fillColor=none;whiteSpace=wrap;" vertex="1" parent="1001">
          <mxGeometry y="52" width="120" height="16" as="geometry" />
        </mxCell>
        <!-- Tensor 2 - Full SysML Block -->
        <mxCell id="1002" value="" style="fontStyle=1;align=center;verticalAlign=middle;childLayout=stackLayout;horizontal=1;horizontalStack=0;resizeParent=1;resizeParentMax=0;resizeLast=0;marginBottom=0;fillColor=#e8f5e9;strokeColor=#388e3c;" vertex="1" parent="1000">
          <mxGeometry x="180" y="40" width="120" height="100" as="geometry" />
        </mxCell>
        <mxCell id="1002a" value="{tensor}" style="html=1;align=center;spacing=0;verticalAlign=middle;strokeColor=none;fillColor=none;whiteSpace=wrap;" vertex="1" parent="1002">
          <mxGeometry width="120" height="14" as="geometry" />
        </mxCell>
        <mxCell id="1002b" value="Tensor2" style="html=1;align=center;spacing=0;verticalAlign=middle;strokeColor=none;fillColor=none;whiteSpace=wrap;fontStyle=1;" vertex="1" parent="1002">
          <mxGeometry y="14" width="120" height="14" as="geometry" />
        </mxCell>
        <mxCell id="1002c" value="" style="line;strokeWidth=0.25;fillColor=none;align=left;verticalAlign=middle;spacingTop=-1;spacingLeft=3;spacingRight=3;rotatable=0;labelPosition=right;points=[];portConstraint=eastwest;" vertex="1" parent="1002">
          <mxGeometry y="28" width="120" height="8" as="geometry" />
        </mxCell>
        <mxCell id="1002d" value="operations" style="html=1;align=center;spacing=0;verticalAlign=middle;strokeColor=none;fillColor=none;whiteSpace=wrap;fontStyle=2;fontSize=10;" vertex="1" parent="1002">
          <mxGeometry y="36" width="120" height="16" as="geometry" />
        </mxCell>
        <mxCell id="1002e" value="cos() : Tensor" style="html=1;align=left;spacing=0;spacingLeft=8;verticalAlign=middle;strokeColor=none;fillColor=none;whiteSpace=wrap;" vertex="1" parent="1002">
          <mxGeometry y="52" width="120" height="16" as="geometry" />
        </mxCell>
        <!-- Tensor 3 - Full SysML Block -->
        <mxCell id="1003" value="" style="fontStyle=1;align=center;verticalAlign=middle;childLayout=stackLayout;horizontal=1;horizontalStack=0;resizeParent=1;resizeParentMax=0;resizeLast=0;marginBottom=0;fillColor=#e3f2fd;strokeColor=#1976d2;" vertex="1" parent="1000">
          <mxGeometry x="330" y="40" width="120" height="100" as="geometry" />
        </mxCell>
        <mxCell id="1003a" value="{tensor}" style="html=1;align=center;spacing=0;verticalAlign=middle;strokeColor=none;fillColor=none;whiteSpace=wrap;" vertex="1" parent="1003">
          <mxGeometry width="120" height="14" as="geometry" />
        </mxCell>
        <mxCell id="1003b" value="Tensor3" style="html=1;align=center;spacing=0;verticalAlign=middle;strokeColor=none;fillColor=none;whiteSpace=wrap;fontStyle=1;" vertex="1" parent="1003">
          <mxGeometry y="14" width="120" height="14" as="geometry" />
        </mxCell>
        <mxCell id="1003c" value="" style="line;strokeWidth=0.25;fillColor=none;align=left;verticalAlign=middle;spacingTop=-1;spacingLeft=3;spacingRight=3;rotatable=0;labelPosition=right;points=[];portConstraint=eastwest;" vertex="1" parent="1003">
          <mxGeometry y="28" width="120" height="8" as="geometry" />
        </mxCell>
        <mxCell id="1003d" value="operations" style="html=1;align=center;spacing=0;verticalAlign=middle;strokeColor=none;fillColor=none;whiteSpace=wrap;fontStyle=2;fontSize=10;" vertex="1" parent="1003">
          <mxGeometry y="36" width="120" height="16" as="geometry" />
        </mxCell>
        <mxCell id="1003e" value="exp() : Tensor" style="html=1;align=left;spacing=0;spacingLeft=8;verticalAlign=middle;strokeColor=none;fillColor=none;whiteSpace=wrap;" vertex="1" parent="1003">
          <mxGeometry y="52" width="120" height="16" as="geometry" />
        </mxCell>
        <!-- Tensor 4 - Full SysML Block -->
        <mxCell id="1004" value="" style="fontStyle=1;align=center;verticalAlign=middle;childLayout=stackLayout;horizontal=1;horizontalStack=0;resizeParent=1;resizeParentMax=0;resizeLast=0;marginBottom=0;fillColor=#fce4ec;strokeColor=#c2185b;" vertex="1" parent="1000">
          <mxGeometry x="30" y="170" width="120" height="100" as="geometry" />
        </mxCell>
        <mxCell id="1004a" value="{tensor}" style="html=1;align=center;spacing=0;verticalAlign=middle;strokeColor=none;fillColor=none;whiteSpace=wrap;" vertex="1" parent="1004">
          <mxGeometry width="120" height="14" as="geometry" />
        </mxCell>
        <mxCell id="1004b" value="Tensor4" style="html=1;align=center;spacing=0;verticalAlign=middle;strokeColor=none;fillColor=none;whiteSpace=wrap;fontStyle=1;" vertex="1" parent="1004">
          <mxGeometry y="14" width="120" height="14" as="geometry" />
        </mxCell>
        <mxCell id="1004c" value="" style="line;strokeWidth=0.25;fillColor=none;align=left;verticalAlign=middle;spacingTop=-1;spacingLeft=3;spacingRight=3;rotatable=0;labelPosition=right;points=[];portConstraint=eastwest;" vertex="1" parent="1004">
          <mxGeometry y="28" width="120" height="8" as="geometry" />
        </mxCell>
        <mxCell id="1004d" value="operations" style="html=1;align=center;spacing=0;verticalAlign=middle;strokeColor=none;fillColor=none;whiteSpace=wrap;fontStyle=2;fontSize=10;" vertex="1" parent="1004">
          <mxGeometry y="36" width="120" height="16" as="geometry" />
        </mxCell>
        <mxCell id="1004e" value="sqrt() : Tensor" style="html=1;align=left;spacing=0;spacingLeft=8;verticalAlign=middle;strokeColor=none;fillColor=none;whiteSpace=wrap;" vertex="1" parent="1004">
          <mxGeometry y="52" width="120" height="16" as="geometry" />
        </mxCell>
        <!-- Tensor 5 - Full SysML Block -->
        <mxCell id="1005" value="" style="fontStyle=1;align=center;verticalAlign=middle;childLayout=stackLayout;horizontal=1;horizontalStack=0;resizeParent=1;resizeParentMax=0;resizeLast=0;marginBottom=0;fillColor=#ede7f6;strokeColor=#512da8;" vertex="1" parent="1000">
          <mxGeometry x="180" y="170" width="120" height="100" as="geometry" />
        </mxCell>
        <mxCell id="1005a" value="{tensor}" style="html=1;align=center;spacing=0;verticalAlign=middle;strokeColor=none;fillColor=none;whiteSpace=wrap;" vertex="1" parent="1005">
          <mxGeometry width="120" height="14" as="geometry" />
        </mxCell>
        <mxCell id="1005b" value="Tensor5" style="html=1;align=center;spacing=0;verticalAlign=middle;strokeColor=none;fillColor=none;whiteSpace=wrap;fontStyle=1;" vertex="1" parent="1005">
          <mxGeometry y="14" width="120" height="14" as="geometry" />
        </mxCell>
        <mxCell id="1005c" value="" style="line;strokeWidth=0.25;fillColor=none;align=left;verticalAlign=middle;spacingTop=-1;spacingLeft=3;spacingRight=3;rotatable=0;labelPosition=right;points=[];portConstraint=eastwest;" vertex="1" parent="1005">
          <mxGeometry y="28" width="120" height="8" as="geometry" />
        </mxCell>
        <mxCell id="1005d" value="operations" style="html=1;align=center;spacing=0;verticalAlign=middle;strokeColor=none;fillColor=none;whiteSpace=wrap;fontStyle=2;fontSize=10;" vertex="1" parent="1005">
          <mxGeometry y="36" width="120" height="16" as="geometry" />
        </mxCell>
        <mxCell id="1005e" value="tanh() : Tensor" style="html=1;align=left;spacing=0;spacingLeft=8;verticalAlign=middle;strokeColor=none;fillColor=none;whiteSpace=wrap;" vertex="1" parent="1005">
          <mxGeometry y="52" width="120" height="16" as="geometry" />
        </mxCell>
        <!-- Tensor 6 - Full SysML Block -->
        <mxCell id="1006" value="" style="fontStyle=1;align=center;verticalAlign=middle;childLayout=stackLayout;horizontal=1;horizontalStack=0;resizeParent=1;resizeParentMax=0;resizeLast=0;marginBottom=0;fillColor=#f3e5f5;strokeColor=#7b1fa2;" vertex="1" parent="1000">
          <mxGeometry x="330" y="170" width="120" height="100" as="geometry" />
        </mxCell>
        <mxCell id="1006a" value="{tensor}" style="html=1;align=center;spacing=0;verticalAlign=middle;strokeColor=none;fillColor=none;whiteSpace=wrap;" vertex="1" parent="1006">
          <mxGeometry width="120" height="14" as="geometry" />
        </mxCell>
        <mxCell id="1006b" value="Tensor6" style="html=1;align=center;spacing=0;verticalAlign=middle;strokeColor=none;fillColor=none;whiteSpace=wrap;fontStyle=1;" vertex="1" parent="1006">
          <mxGeometry y="14" width="120" height="14" as="geometry" />
        </mxCell>
        <mxCell id="1006c" value="" style="line;strokeWidth=0.25;fillColor=none;align=left;verticalAlign=middle;spacingTop=-1;spacingLeft=3;spacingRight=3;rotatable=0;labelPosition=right;points=[];portConstraint=eastwest;" vertex="1" parent="1006">
          <mxGeometry y="28" width="120" height="8" as="geometry" />
        </mxCell>
        <mxCell id="1006d" value="operations" style="html=1;align=center;spacing=0;verticalAlign=middle;strokeColor=none;fillColor=none;whiteSpace=wrap;fontStyle=2;fontSize=10;" vertex="1" parent="1006">
          <mxGeometry y="36" width="120" height="16" as="geometry" />
        </mxCell>
        <mxCell id="1006e" value="pow() : Tensor" style="html=1;align=left;spacing=0;spacingLeft=8;verticalAlign=middle;strokeColor=none;fillColor=none;whiteSpace=wrap;" vertex="1" parent="1006">
          <mxGeometry y="52" width="120" height="16" as="geometry" />
        </mxCell>
        <!-- Pipeline arrows -->
        <mxCell id="1010" style="edgeStyle=orthogonalEdgeStyle;endArrow=block;html=1;strokeColor=#00838f;" edge="1" parent="1000" source="1001" target="1002">
          <mxGeometry relative="1" as="geometry" />
        </mxCell>
        <mxCell id="1011" style="edgeStyle=orthogonalEdgeStyle;endArrow=block;html=1;strokeColor=#00838f;" edge="1" parent="1000" source="1002" target="1003">
          <mxGeometry relative="1" as="geometry" />
        </mxCell>
        <mxCell id="1012" style="edgeStyle=orthogonalEdgeStyle;endArrow=block;html=1;strokeColor=#00838f;" edge="1" parent="1000" source="1003" target="1006">
          <mxGeometry relative="1" as="geometry" />
        </mxCell>
        <mxCell id="1013" style="edgeStyle=orthogonalEdgeStyle;endArrow=block;html=1;strokeColor=#00838f;" edge="1" parent="1000" source="1006" target="1005">
          <mxGeometry relative="1" as="geometry" />
        </mxCell>
        <mxCell id="1014" style="edgeStyle=orthogonalEdgeStyle;endArrow=block;html=1;strokeColor=#00838f;" edge="1" parent="1000" source="1005" target="1004">
          <mxGeometry relative="1" as="geometry" />
        </mxCell>
        <mxCell id="1015" style="edgeStyle=orthogonalEdgeStyle;endArrow=block;html=1;strokeColor=#00838f;" edge="1" parent="1000" source="1004" target="1001">
          <mxGeometry relative="1" as="geometry" />
        </mxCell>
        <!-- Feedback loop -->
        <mxCell id="1016" style="edgeStyle=orthogonalEdgeStyle;endArrow=block;html=1;strokeColor=#d84315;dashed=1;strokeWidth=2;" edge="1" parent="1000" source="1006" target="1001">
          <mxGeometry relative="1" as="geometry">
            <Array as="points">
              <mxPoint x="340" y="280" />
              <mxPoint x="80" y="280" />
            </Array>
          </mxGeometry>
        </mxCell>
      </root>
    </mxGraphModel>
  </diagram>
</mxfile>
